<?xml version="1.0"?>
<svg xmlns="http://www.w3.org/2000/svg" viewBox="0 0 24 24">
    <path style="text-indent:0;text-align:start;line-height:normal;text-transform:none;block-progression:tb;-inkscape-font-specification:Bitstream Vera Sans" d="M 4 4 C 2.897 4 2 4.897 2 6 L 2 18 C 2 19.103 2.897 20 4 20 L 9 20 L 9 18 L 4 18 L 4 6 L 8.59375 6 L 10.59375 8 L 14.53125 8 C 14.30425 7.362 14.1395 6.695 14.0625 6 L 11.40625 6 L 9.40625 4 L 4 4 z M 15 5 C 15 9.406438 18.593562 13 23 13 L 23 11 C 19.674438 11 17 8.325562 17 5 L 15 5 z M 18 5 C 18 7.7495161 20.250484 10 23 10 L 23 8 C 21.331516 8 20 6.6684839 20 5 L 18 5 z M 21 5 C 21 6.105 21.895 7 23 7 L 23 5 L 21 5 z M 12 10.65625 L 8 16 L 11 16 L 11 22 L 13 22 L 13 16 L 16 16 L 12 10.65625 z M 20 13.46875 L 20 18 L 15 18 L 15 20 L 20 20 C 21.103 20 22 19.103 22 18 L 22 13.9375 C 21.306 13.8605 20.638 13.69475 20 13.46875 z" overflow="visible" font-family="Bitstream Vera Sans"/>
</svg>
